Patient4_TMGait_0pt3_02_left_28_GRF.mot
version=1
nRows=72
nColumns=19
inDegrees=no
endheader
time	F1x	F1y	F1z	M1x	M1y	M1z	F2x	F2y	F2z	M2x	M2y	M2z	EC1x	EC1y	EC1z	EC2x	EC2y	EC2z
54.72	-5.3429	10.7506	3.2919	-3.8703	-4.2734	8.9483	-3.471	720.2095	-35.4881	290.4112	39.8822	731.8409	-0.0592	0.0182	-0.0073	-0.0462	0.0165	0.9585
54.74	-4.2658	7.9146	2.397	-2.8439	-3.2767	6.6224	-3.7064	730.6933	-35.6205	294.3371	40.6057	741.4673	-0.0592	0.0182	-0.0073	-0.0462	0.0165	0.9585
54.76	-3.1014	5.2148	1.5929	-1.8733	-2.3046	4.3923	-4.5541	744.3576	-35.9304	299.6671	41.5728	753.6906	-0.0592	0.0182	-0.0073	-0.0462	0.0165	0.9585
54.78	-2.0482	2.9663	0.95117	-1.069	-1.4771	2.532	-6.0116	761.3338	-36.3919	306.4486	42.7199	768.6239	-0.0592	0.0182	-0.0073	-0.0462	0.0165	0.9585
54.8	-1.2055	1.28	0.48713	-0.46929	-0.84158	1.1405	-7.9037	781.3638	-36.9455	314.5434	43.9199	786.0136	-0.0592	0.0182	-0.0073	-0.0462	0.0165	0.9585
54.82	-0.59982	0.13902	0.18502	-0.066405	-0.40068	0.20148	-9.9151	803.5069	-37.5274	323.5269	45.0131	804.9272	-0.0592	0.0182	-0.0073	-0.0462	0.0165	0.9585
54.84	-0.2146	-0.54292	0.014463	0.17266	-0.13248	-0.35933	-11.6548	825.9726	-38.0776	332.6315	45.8255	823.6105	-0.0592	0.0182	-0.0073	-0.0462	0.0165	0.9585
54.86	-0.0128	-0.88482	-0.059571	0.29232	-0.0027847	-0.64458	-12.76	846.2099	-38.5475	340.7884	46.2045	839.6059	-0.0592	0.0182	-0.0073	-0.0462	0.0165	0.9585
54.88	0.048703	-1.0122	-0.068204	0.33918	0.024902	-0.76662	-12.9805	861.3508	-38.8985	346.8108	46.044	850.2052	-0.0592	0.0182	-0.0073	-0.0462	0.0165	0.9585
54.9	0.010328	-1.0473	-0.036211	0.35777	-0.017845	-0.8333	-12.2163	868.9628	-39.0798	349.6998	45.281	853.1807	-0.0592	0.0182	-0.0073	-0.0462	0.0165	0.9585
54.92	-0.093718	-1.098	0.017053	0.38778	-0.1046	-0.93791	-10.5051	867.7409	-39.0396	348.9223	43.9036	847.4331	-0.0592	0.0182	-0.0073	-0.0462	0.0165	0.9585
54.94	-0.23461	-1.2489	0.07865	0.4603	-0.21339	-1.1552	-7.9815	857.8372	-38.7531	344.5451	41.9609	833.2751	-0.0592	0.0182	-0.0073	-0.0462	0.0165	0.9585
54.96	-0.38583	-1.5606	0.13899	0.59618	-0.32633	-1.5346	-4.8291	840.7988	-38.2275	337.207	39.5487	812.34	-0.0592	0.0182	-0.0073	-0.0462	0.0165	0.9585
54.98	-0.5213	-2.0685	0.18986	0.8048	-0.42766	-2.1083	-1.271	819.1385	-37.4952	327.9422	36.7985	787.1561	-0.0592	0.0182	-0.0073	-0.0462	0.0165	0.9585
55	-0.61051	-2.7664	0.2201	1.0802	-0.49586	-2.8764	2.4586	795.767	-36.6023	317.9464	33.8577	760.5892	-0.0592	0.0182	-0.0073	-0.0462	0.0165	0.9585
55.02	-0.60855	-3.5884	0.21472	1.395	-0.49902	-3.7783	6.1574	773.4437	-35.613	308.3555	30.8741	735.3062	-0.0592	0.0182	-0.0073	-0.0462	0.0165	0.9585
55.04	-0.45575	-4.382	0.15515	1.6907	-0.39299	-4.6598	9.6922	754.3357	-34.5979	300.0662	27.9739	713.3527	-0.0592	0.0182	-0.0073	-0.0462	0.0165	0.9585
55.06	-0.078904	-4.879	0.017265	1.8663	-0.12077	-5.2428	13.0109	739.7718	-33.6251	293.6341	25.249	695.9364	-0.0592	0.0182	-0.0073	-0.0462	0.0165	0.9585
55.08	0.60615	-4.6668	-0.22952	1.7686	0.38655	-5.091	16.1105	730.1738	-32.7618	289.2401	22.7655	683.3972	-0.0592	0.0182	-0.0073	-0.0462	0.0165	0.9585
55.1	1.6783	-3.1751	-0.61786	1.185	1.2021	-3.5926	19.0024	725.125	-32.0782	286.7148	20.5795	675.3041	-0.0592	0.0182	-0.0073	-0.0462	0.0165	0.9585
55.12	3.189	0.31557	-1.1711	-0.15243	2.3743	0.028706	21.6921	723.5619	-31.6363	285.6153	18.7373	670.6537	-0.0592	0.0182	-0.0073	-0.0462	0.0165	0.9585
55.14	5.1236	6.6195	-1.8921	-2.5438	3.8969	6.6631	24.1495	724.0338	-31.4799	285.3329	17.279	668.1247	-0.0592	0.0182	-0.0073	-0.0462	0.0165	0.9585
55.16	7.3418	16.5084	-2.7445	-6.2687	5.673	17.1734	26.2839	724.9527	-31.6324	285.2002	16.2497	666.3076	-0.0592	0.0182	-0.0073	-0.0462	0.0165	0.9585
55.18	9.4779	30.5048	-3.6212	-11.5099	7.4453	32.1703	27.9615	724.7885	-32.0818	284.5798	15.6828	663.8628	-0.0592	0.0182	-0.0073	-0.0462	0.0165	0.9585
55.2	10.8254	48.6959	-4.3231	-18.2844	8.7292	51.8255	29.0334	722.1573	-32.7509	282.9102	15.5639	659.5813	-0.0592	0.0182	-0.0073	-0.0462	0.0165	0.9585
55.22	10.7494	70.8768	-4.5752	-26.4937	8.9832	76.0167	29.3943	715.8164	-33.4927	279.7122	15.8079	652.3535	-0.0592	0.0182	-0.0073	-0.0462	0.0165	0.9585
55.24	9.1561	96.7183	-4.0837	-35.9889	7.8403	104.4477	29.05	704.6869	-34.1209	274.5977	16.2581	641.1639	-0.0592	0.0182	-0.0073	-0.0462	0.0165	0.9585
55.26	6.2983	125.1554	-2.6099	-46.3571	5.1199	135.9714	28.1107	687.9604	-34.4492	267.3009	16.7191	625.1907	-0.0592	0.0182	-0.0073	-0.0462	0.0165	0.9585
55.28	2.6811	153.9461	-0.1936	-56.7741	1.0497	168.1301	26.7455	665.4058	-34.3464	257.7855	17.0199	604.1134	-0.0592	0.0182	-0.0073	-0.0462	0.0165	0.9585
55.3	-1.1623	180.8141	2.7182	-66.4288	-3.6696	198.4079	25.1612	637.7089	-33.7922	246.3611	17.0693	578.4351	-0.0592	0.0182	-0.0073	-0.0462	0.0165	0.9585
55.32	-4.9604	205.044	5.5778	-75.0903	-8.326	225.9945	23.5784	606.4647	-32.882	233.6706	16.867	549.4904	-0.0592	0.0182	-0.0073	-0.0462	0.0165	0.9585
55.34	-8.6734	227.4953	8.0241	-83.0909	-12.5023	251.8174	22.1807	573.663	-31.7381	220.4938	16.4459	519.0072	-0.0592	0.0182	-0.0073	-0.0462	0.0165	0.9585
55.36	-12.309	249.522	9.9655	-90.9259	-16.0972	277.328	21.0783	541.1156	-30.4454	207.5316	15.8268	488.5995	-0.0592	0.0182	-0.0073	-0.0462	0.0165	0.9585
55.38	-15.8349	272.055	11.5107	-98.9234	-19.2102	303.4885	20.2905	510.0516	-29.0768	195.2507	15.0527	459.3943	-0.0592	0.0182	-0.0073	-0.0462	0.0165	0.9585
55.4	-19.1382	295.368	12.8443	-107.1684	-21.9943	330.4941	19.7659	480.959	-27.7142	183.8235	14.2044	431.881	-0.0592	0.0182	-0.0073	-0.0462	0.0165	0.9585
55.42	-22.0557	319.3177	14.1398	-115.5971	-24.5717	358.0325	19.431	453.677	-26.4215	173.1709	13.3601	405.9787	-0.0592	0.0182	-0.0073	-0.0462	0.0165	0.9585
55.44	-24.4489	343.7288	15.5252	-124.1433	-27.0257	385.7446	19.2259	427.6284	-25.2059	163.0578	12.5487	381.2333	-0.0592	0.0182	-0.0073	-0.0462	0.0165	0.9585
55.46	-26.2383	368.6639	17.0877	-132.8377	-29.4163	413.5549	19.1136	402.0827	-24.005	153.197	11.7333	357.0533	-0.0592	0.0182	-0.0073	-0.0462	0.0165	0.9585
55.48	-27.4105	394.4631	18.8596	-141.8142	-31.7657	441.7339	19.0567	376.3522	-22.7186	143.3232	10.8484	332.8843	-0.0592	0.0182	-0.0073	-0.0462	0.0165	0.9585
55.5	-28.0212	421.5652	20.8297	-151.2311	-34.0756	470.7056	18.9799	349.8786	-21.2656	133.2218	9.8562	308.2847	-0.0592	0.0182	-0.0073	-0.0462	0.0165	0.9585
55.52	-28.1691	450.2003	22.9999	-161.1608	-36.3742	500.7222	18.7561	322.2709	-19.6278	122.7381	8.7802	282.9544	-0.0592	0.0182	-0.0073	-0.0462	0.0165	0.9585
55.54	-27.9704	480.1861	25.3979	-171.5228	-38.7238	531.6383	18.2218	293.3358	-17.8515	111.7855	7.7037	256.749	-0.0592	0.0182	-0.0073	-0.0462	0.0165	0.9585
55.56	-27.5293	510.9629	28.0387	-182.1041	-41.1715	562.9204	17.2237	263.0971	-16.0189	100.3559	6.7383	229.691	-0.0592	0.0182	-0.0073	-0.0462	0.0165	0.9585
55.58	-26.9022	541.8212	30.8946	-192.6468	-43.704	593.8589	15.6706	231.8062	-14.2164	88.525	5.9839	201.9779	-0.0592	0.0182	-0.0073	-0.0462	0.0165	0.9585
55.6	-26.1058	572.0849	33.897	-202.9168	-46.2546	623.766	13.5604	199.9491	-12.5162	76.4599	5.4994	173.9944	-0.0592	0.0182	-0.0073	-0.0462	0.0165	0.9585
55.62	-25.1532	601.1695	36.9567	-212.7241	-48.741	652.0569	10.9894	168.2496	-10.9656	64.425	5.2869	146.3186	-0.0592	0.0182	-0.0073	-0.0462	0.0165	0.9585
55.64	-24.0789	628.6197	39.9903	-221.9281	-51.1011	678.2936	8.1443	137.6197	-9.5774	52.7641	5.2829	119.6831	-0.0592	0.0182	-0.0073	-0.0462	0.0165	0.9585
55.66	-22.948	654.1412	42.9336	-230.4433	-53.3053	702.2193	5.2746	109.0072	-8.3309	41.8416	5.3724	94.8547	-0.0592	0.0182	-0.0073	-0.0462	0.0165	0.9585
55.68	-21.8497	677.6207	45.7277	-238.2467	-55.3371	723.7639	2.6344	83.215	-7.1843	31.9715	5.423	72.4844	-0.0592	0.0182	-0.0073	-0.0462	0.0165	0.9585
55.7	-20.8724	699.1616	48.3103	-245.395	-57.1785	743.0718	0.42486	60.791	-6.0897	23.373	5.3183	53.0243	-0.0592	0.0182	-0.0073	-0.0462	0.0165	0.9585
55.72	-20.0873	719.1036	50.6117	-252.0362	-58.7973	760.5167	-1.226	42.0131	-5.011	16.1618	4.9876	36.7157	-0.0592	0.0182	-0.0073	-0.0462	0.0165	0.9585
55.74	-19.5212	737.9636	52.5656	-258.3814	-60.1479	776.6181	-2.2506	26.9257	-3.9345	10.3634	4.4053	23.6047	-0.0592	0.0182	-0.0073	-0.0462	0.0165	0.9585
55.76	-19.1457	756.3054	54.1224	-264.6541	-61.1774	791.9017	-2.6377	15.4042	-2.8806	5.9346	3.5969	13.5858	-0.0592	0.0182	-0.0073	-0.0462	0.0165	0.9585
55.78	-18.88	774.6247	55.2466	-271.048	-61.8229	806.7943	-2.4903	7.2022	-1.9141	2.7815	2.667	6.4492	-0.0592	0.0182	-0.0073	-0.0462	0.0165	0.9585
55.8	-18.591	793.2453	55.9158	-277.6884	-62.0099	821.5367	-2.0439	1.9174	-1.122	0.74918	1.7852	1.85	-0.0592	0.0182	-0.0073	-0.0462	0.0165	0.9585
55.82	-18.1203	812.2228	56.1296	-284.5904	-61.6711	836.1143	-1.4994	-1.0446	-0.53775	-0.39045	1.0579	-0.72684	-0.0592	0.0182	-0.0073	-0.0462	0.0165	0.9585
55.84	-17.3315	831.1484	55.9272	-291.5824	-60.787	850.0991	-0.98077	-2.3324	-0.14808	-0.88634	0.52061	-1.8441	-0.0592	0.0182	-0.0073	-0.0462	0.0165	0.9585
55.86	-16.1457	848.9102	55.3925	-298.2213	-59.4018	862.4401	-0.5522	-2.5342	0.080231	-0.96434	0.16746	-2.0144	-0.0592	0.0182	-0.0073	-0.0462	0.0165	0.9585
55.88	-14.5398	863.6459	54.6443	-303.7852	-57.6147	871.4166	-0.23592	-2.13	0.18853	-0.8087	-0.034184	-1.6542	-0.0592	0.0182	-0.0073	-0.0462	0.0165	0.9585
55.9	-12.5482	873.0356	53.8004	-307.3944	-55.5513	874.9127	-0.026835	-1.4826	0.21709	-0.55905	-0.12439	-1.0797	-0.0592	0.0182	-0.0073	-0.0462	0.0165	0.9585
55.92	-10.2334	874.9066	52.9343	-308.2424	-53.3122	870.9646	0.09169	-0.85084	0.20057	-0.31604	-0.14168	-0.52721	-0.0592	0.0182	-0.0073	-0.0462	0.0165	0.9585
55.94	-7.6192	867.9527	52.0404	-305.861	-50.9163	858.4138	0.13854	-0.41244	0.16599	-0.15013	-0.12027	-0.16586	-0.0592	0.0182	-0.0073	-0.0462	0.0165	0.9585
55.96	-4.6682	852.215	51.0512	-300.2885	-48.303	837.3532	0.13273	-0.28887	0.12786	-0.10926	-0.082381	-0.11151	-0.0592	0.0182	-0.0073	-0.0462	0.0165	0.9585
55.98	-1.319	829.1509	49.9009	-292.0801	-45.4053	809.1985	0.093412	-0.5596	0.095675	-0.22548	-0.042907	-0.44387	-0.0592	0.0182	-0.0073	-0.0462	0.0165	0.9585
56	2.4788	801.3799	48.5781	-282.2021	-42.2095	776.4545	0.042241	-1.2646	0.078113	-0.51444	-0.017222	-1.2099	-0.0592	0.0182	-0.0073	-0.0462	0.0165	0.9585
56.02	6.7425	772.221	47.1457	-271.8615	-38.7768	742.2813	0.0034035	-2.3983	0.08409	-0.97311	-0.022345	-2.4135	-0.0592	0.0182	-0.0073	-0.0462	0.0165	0.9585
56.04	11.4601	745.137	45.7266	-262.3026	-35.2244	709.9703	0.0021151	-3.8857	0.12262	-1.5704	-0.076277	-3.9884	-0.0592	0.0182	-0.0073	-0.0462	0.0165	0.9585
56.06	16.5889	723.1555	44.4758	-254.5974	-31.7029	682.3965	0.067865	-5.5371	0.20282	-2.2295	-0.19875	-5.7453	-0.0592	0.0182	-0.0073	-0.0462	0.0165	0.9585
56.08	22.0356	708.324	43.558	-249.4551	-28.3895	661.5186	0.23693	-6.9919	0.33209	-2.8051	-0.41115	-7.3113	-0.0592	0.0182	-0.0073	-0.0462	0.0165	0.9585
56.1	27.6638	701.3352	43.1199	-247.0941	-25.4626	648.0519	0.54975	-7.6607	0.51287	-3.0614	-0.73149	-8.0663	-0.0592	0.0182	-0.0073	-0.0462	0.0165	0.9585
56.12	33.2838	701.4177	43.2553	-247.206	-23.0736	641.3797	1.0447	-6.6709	0.73607	-2.6503	-1.1634	-7.0758	-0.0592	0.0182	-0.0073	-0.0462	0.0165	0.9585
56.14	38.6255	706.4593	43.9756	-249.0076	-21.3321	639.6953	1.7456	-2.8475	0.97723	-1.1042	-1.6858	-3.0839	-0.0592	0.0182	-0.0073	-0.0462	0.0165	0.9585
